<?xml version="1.0" standalone="no"?>
<!DOCTYPE svg PUBLIC "-//W3C//DTD SVG 20010904//EN"
 "http://www.w3.org/TR/2001/REC-SVG-20010904/DTD/svg10.dtd">
<svg version="1.0" xmlns="http://www.w3.org/2000/svg"
 width="900.000000pt" height="900.000000pt" viewBox="0 0 900.000000 900.000000"
 preserveAspectRatio="xMidYMid meet">

<g transform="translate(0.000000,900.000000) scale(0.100000,-0.100000)"
fill="#000000" stroke="none">
<path d="M5086 8975 c-156 -83 -361 -279 -482 -460 -155 -235 -273 -572 -300
-865 -4 -41 -12 -78 -18 -82 -22 -15 -37 -7 -48 25 -22 62 -94 194 -140 253
-206 268 -537 418 -968 440 -113 6 -130 5 -171 -13 -61 -27 -101 -80 -107
-143 -6 -65 2 -93 40 -136 44 -50 83 -64 174 -64 259 0 537 -90 677 -219 53
-49 137 -160 137 -181 0 -4 -44 -15 -97 -25 -625 -108 -1224 -379 -1730 -781
-132 -105 -449 -423 -557 -559 -315 -397 -550 -872 -665 -1345 -31 -126 -81
-412 -81 -461 0 -24 -6 -27 -81 -48 -312 -83 -555 -320 -641 -626 -19 -67 -22
-104 -22 -225 1 -128 4 -155 27 -233 33 -106 70 -182 129 -262 117 -157 264
-265 451 -329 l89 -31 44 -142 c298 -961 987 -1680 1992 -2077 1030 -406 2319
-419 3362 -34 746 276 1304 702 1702 1302 162 245 327 604 399 869 l24 87 40
11 c236 59 464 245 576 468 62 125 82 213 83 371 0 166 -22 258 -96 403 -111
217 -337 393 -579 452 l-68 17 -6 56 c-59 532 -253 1060 -560 1522 -134 202
-247 342 -420 519 -648 664 -1493 1052 -2458 1127 l-89 7 6 56 c21 180 82 393
153 535 110 221 319 449 468 510 78 33 118 93 117 177 -1 51 -27 105 -67 135
-28 21 -42 24 -112 24 -66 0 -88 -4 -127 -25z m-253 -1781 c582 -64 1105 -250
1567 -559 242 -161 434 -324 607 -513 320 -351 554 -748 691 -1172 92 -286
132 -520 155 -905 l2 -40 140 -6 c77 -3 160 -11 185 -18 130 -37 262 -143 324
-260 108 -207 81 -442 -70 -610 -101 -111 -220 -165 -387 -177 -54 -4 -100
-11 -103 -16 -4 -6 -19 -65 -35 -133 -258 -1117 -1071 -1895 -2314 -2215 -665
-171 -1419 -185 -2100 -38 -727 156 -1332 474 -1770 929 -353 367 -586 807
-710 1342 -31 133 -18 122 -150 133 -104 8 -187 34 -261 82 -283 183 -328 566
-96 813 113 121 240 169 449 169 l112 0 5 53 c3 28 11 114 16 190 76 1021 676
1953 1610 2499 419 245 944 413 1399 448 68 5 126 12 129 15 12 12 471 4 605
-11z"/>
<path d="M2920 4345 c-145 -33 -289 -142 -357 -271 -92 -174 -80 -394 30 -553
105 -150 258 -232 437 -232 156 0 281 51 387 159 199 201 205 522 13 735 -122
136 -330 203 -510 162z"/>
<path d="M5808 4350 c-125 -22 -230 -80 -311 -170 -191 -212 -183 -533 18
-735 125 -126 293 -181 466 -150 110 19 195 62 280 143 159 149 209 374 129
583 -49 130 -182 257 -318 305 -76 26 -194 37 -264 24z"/>
<path d="M3312 2164 c-67 -34 -111 -118 -98 -187 16 -86 87 -146 301 -252 299
-147 547 -210 880 -221 363 -12 680 55 1000 211 140 68 256 144 288 187 40 54
38 151 -5 209 -33 44 -99 72 -158 67 -38 -4 -67 -17 -127 -57 -365 -244 -893
-325 -1363 -210 -198 49 -343 110 -490 207 -72 48 -92 56 -140 59 -37 3 -66
-2 -88 -13z"/>
</g>
</svg>
