<?xml version="1.0" standalone="no"?>
<!DOCTYPE svg PUBLIC "-//W3C//DTD SVG 20010904//EN"
 "http://www.w3.org/TR/2001/REC-SVG-20010904/DTD/svg10.dtd">
<svg version="1.0" xmlns="http://www.w3.org/2000/svg"
 width="604.000000pt" height="604.000000pt" viewBox="0 0 604.000000 604.000000"
 preserveAspectRatio="xMidYMid meet">
<metadata>
Created by potrace 1.16, written by Peter Selinger 2001-2019
</metadata>
<g transform="translate(0.000000,604.000000) scale(0.100000,-0.100000)"
fill="#000000" stroke="none">
<path d="M2965 4510 c-13 -14 -16 -28 -11 -57 4 -21 9 -79 12 -129 l6 -90 -83
-17 c-99 -19 -236 -84 -321 -151 -103 -82 -198 -213 -249 -344 -23 -60 -25
-62 -74 -77 -121 -35 -180 -172 -126 -290 31 -67 102 -115 170 -115 23 0 34
-7 45 -28 8 -16 33 -52 56 -81 l41 -51 -95 -95 c-100 -101 -192 -228 -257
-357 -37 -74 -40 -77 -65 -68 -42 16 -145 11 -189 -9 -205 -93 -216 -490 -22
-789 121 -186 292 -281 435 -243 48 13 110 64 143 117 20 32 23 34 43 21 49
-33 177 -81 285 -109 217 -55 482 -48 690 17 65 21 188 73 242 102 4 2 12 -10
19 -27 18 -44 92 -105 145 -120 203 -57 434 144 540 470 25 75 28 100 29 215
0 113 -3 138 -23 189 -27 68 -79 129 -132 157 -42 21 -149 26 -193 9 -24 -9
-27 -6 -66 72 -65 131 -148 246 -252 351 l-98 99 39 46 c21 26 46 62 55 80 14
26 22 32 49 32 46 0 115 38 151 83 26 32 31 49 34 107 7 116 -43 188 -154 220
-36 11 -43 18 -54 54 -47 158 -194 335 -358 431 -42 25 -82 45 -88 45 -6 0
-19 30 -29 66 -30 110 -116 219 -212 268 -42 21 -56 20 -78 -4z m175 -289 c25
-78 25 -108 1 -193 -22 -81 -13 -111 35 -116 38 -4 53 13 79 89 l20 59 65 -42
c133 -83 238 -221 286 -373 13 -44 32 -86 41 -92 9 -7 37 -13 61 -13 106 0
142 -136 46 -176 -21 -9 -48 -13 -64 -9 -43 9 -67 -9 -101 -77 -126 -250 -525
-357 -883 -238 -130 43 -244 137 -298 247 -32 65 -49 78 -92 67 -43 -10 -96
14 -112 51 -31 74 13 135 96 135 54 0 74 16 85 70 29 142 153 312 296 406 84
55 153 81 253 95 45 6 88 17 97 25 17 15 39 105 39 158 0 28 1 29 15 10 8 -10
24 -48 35 -83z m-536 -1256 c133 -66 206 -79 421 -79 178 0 196 2 278 27 48
15 115 41 148 57 70 36 65 38 168 -63 88 -85 168 -196 229 -314 l51 -99 -55
-54 c-30 -30 -76 -87 -101 -127 l-46 -72 -51 85 c-61 102 -147 210 -176 219
-13 4 -31 0 -45 -9 -37 -24 -33 -64 13 -117 66 -77 153 -209 138 -209 -3 0
-23 7 -43 15 -301 117 -737 112 -1061 -12 -20 -8 63 123 124 195 30 35 54 71
54 81 0 25 -37 61 -62 61 -38 0 -125 -107 -222 -273 l-22 -39 -40 68 c-21 37
-65 94 -96 127 -32 32 -58 64 -58 71 0 20 105 202 158 274 47 63 203 222 218
222 3 0 38 -16 78 -35z m-602 -524 c96 -41 205 -173 265 -318 78 -191 65 -406
-29 -476 -36 -27 -102 -25 -158 3 -172 88 -308 354 -298 585 8 184 91 262 220
206z m2175 -1 c57 -35 84 -109 84 -232 0 -162 -74 -348 -185 -466 -102 -108
-205 -143 -274 -93 -67 48 -96 190 -67 332 61 305 296 549 442 459z m-920
-266 c94 -14 243 -58 328 -95 40 -18 46 -24 40 -42 -4 -12 -9 -75 -12 -140
l-5 -118 -82 -39 c-165 -79 -313 -112 -505 -112 -189 0 -346 35 -507 113 l-85
42 6 41 c6 40 -7 184 -20 218 -5 12 10 22 67 46 246 102 494 129 775 86z"/>
<path d="M2698 3748 c-43 -11 -105 -68 -114 -104 -19 -75 55 -101 112 -39 23
26 40 35 64 35 24 0 39 -9 63 -35 38 -43 78 -47 103 -10 21 32 6 72 -42 115
-52 45 -112 58 -186 38z"/>
<path d="M3226 3748 c-42 -11 -109 -72 -118 -106 -9 -35 14 -67 51 -70 28 -3
38 2 63 32 41 50 86 50 125 1 45 -57 113 -46 113 18 0 87 -127 154 -234 125z"/>
<path d="M2860 3370 c-25 -25 -25 -44 1 -86 66 -107 236 -112 313 -11 33 44
34 82 1 103 -31 20 -67 12 -84 -20 -13 -24 -50 -46 -77 -46 -9 0 -33 18 -55
40 -44 45 -69 50 -99 20z"/>
</g>
</svg>
