<?xml version="1.0" standalone="no"?>
<!DOCTYPE svg PUBLIC "-//W3C//DTD SVG 20010904//EN"
 "http://www.w3.org/TR/2001/REC-SVG-20010904/DTD/svg10.dtd">
<svg version="1.0" xmlns="http://www.w3.org/2000/svg"
 width="452.000000pt" height="452.000000pt" viewBox="0 0 452.000000 452.000000"
 preserveAspectRatio="xMidYMid meet">
<metadata>
Created by potrace 1.16, written by Peter Selinger 2001-2019
</metadata>
<g transform="translate(0.000000,452.000000) scale(0.100000,-0.100000)"
fill="#000000" stroke="none">
<path d="M815 4220 c-134 -35 -223 -86 -323 -183 -78 -76 -142 -177 -179 -282
l-28 -80 -3 -1242 c-3 -1400 -7 -1318 74 -1482 83 -168 232 -295 422 -360 l77
-26 1265 0 1265 0 78 27 c221 75 390 244 465 465 l27 78 0 1265 0 1265 -26 77
c-42 122 -93 204 -184 294 -66 66 -100 90 -176 128 -162 80 -82 76 -1459 75
-1162 0 -1229 -1 -1295 -19z m2539 -285 c155 -41 275 -171 306 -334 14 -73 14
-2328 0 -2401 -32 -170 -170 -308 -339 -340 -29 -5 -159 -10 -287 -10 l-234 0
0 565 0 565 200 0 c160 0 200 3 200 13 0 16 47 388 55 430 l4 27 -230 0 -231
0 4 183 c4 213 13 244 89 287 41 23 56 25 212 28 l167 4 0 204 c0 129 -4 205
-10 209 -6 4 -104 9 -218 12 -241 6 -311 -4 -432 -64 -129 -63 -222 -179 -267
-333 -11 -41 -17 -117 -20 -292 l-5 -238 -174 0 -174 0 0 -235 0 -235 175 0
175 0 0 -565 0 -565 -674 0 c-416 0 -694 4 -727 10 -166 32 -301 160 -338 321
-7 28 -11 464 -11 1219 0 1031 2 1183 16 1235 38 147 150 260 294 299 84 22
2388 23 2474 1z"/>
</g>
</svg>
