<?xml version="1.0" standalone="no"?>
<!DOCTYPE svg PUBLIC "-//W3C//DTD SVG 20010904//EN"
 "http://www.w3.org/TR/2001/REC-SVG-20010904/DTD/svg10.dtd">
<svg version="1.0" xmlns="http://www.w3.org/2000/svg"
 width="367.000000pt" height="137.000000pt" viewBox="0 0 367.000000 137.000000"
 preserveAspectRatio="xMidYMid meet">
<metadata>
Created by potrace 1.16, written by Peter Selinger 2001-2019
</metadata>
<g transform="translate(0.000000,137.000000) scale(0.100000,-0.100000)"
fill="#000000" stroke="none">
<path d="M20 1350 c-19 -19 -20 -33 -20 -514 0 -436 2 -496 16 -510 17 -18 42
-20 64 -6 12 8 16 50 20 242 5 230 5 234 32 278 60 102 153 160 256 162 122 2
226 -62 279 -170 28 -56 28 -59 31 -277 2 -134 8 -225 14 -232 14 -17 53 -16
67 1 9 11 11 79 9 253 -3 237 -3 238 -31 294 -43 88 -98 143 -185 186 -72 36
-81 38 -171 38 -112 -1 -182 -23 -248 -80 -23 -19 -44 -35 -47 -35 -3 0 -6 81
-6 179 0 175 -1 180 -22 195 -29 20 -34 20 -58 -4z"/>
<path d="M1253 1085 c-185 -52 -292 -180 -301 -361 -12 -232 152 -406 383
-407 101 -1 174 26 243 89 28 24 53 44 56 44 3 0 6 -21 6 -48 0 -77 44 -117
85 -75 15 14 16 42 13 242 l-3 226 -32 67 c-83 175 -278 272 -450 223z m207
-111 c64 -30 123 -83 153 -139 32 -59 31 -192 -1 -255 -79 -152 -249 -212
-397 -141 -70 33 -102 65 -141 141 -23 45 -28 67 -28 125 0 73 18 123 70 192
72 95 229 131 344 77z"/>
<path d="M2240 1089 c-116 -23 -221 -106 -273 -217 l-32 -67 -3 -370 c-2 -203
0 -380 3 -392 6 -27 49 -41 70 -23 12 10 15 49 15 221 0 146 3 209 11 209 6 0
33 -20 61 -44 87 -79 214 -111 327 -82 121 31 207 104 264 224 29 61 32 76 32
162 0 86 -3 101 -33 161 -40 83 -94 140 -169 177 -94 48 -176 60 -273 41z
m205 -113 c73 -34 110 -69 144 -138 99 -197 -43 -428 -264 -428 -81 0 -154 31
-210 91 -63 67 -86 123 -86 206 0 120 67 221 182 273 64 29 168 27 234 -4z"/>
<path d="M2896 887 c-16 -11 -17 -28 -14 -147 3 -127 5 -139 34 -201 60 -125
154 -197 292 -221 179 -30 345 59 424 228 26 56 31 80 36 174 5 123 0 155 -29
170 -16 9 -26 8 -45 -5 -23 -15 -24 -20 -24 -123 0 -136 -16 -185 -82 -257
-35 -39 -64 -60 -104 -74 -154 -58 -312 5 -384 154 -19 39 -24 71 -29 171 -3
67 -8 124 -11 127 -15 13 -48 15 -64 4z"/>
</g>
</svg>
