<?xml version="1.0" standalone="no"?>
<!DOCTYPE svg PUBLIC "-//W3C//DTD SVG 20010904//EN"
 "http://www.w3.org/TR/2001/REC-SVG-20010904/DTD/svg10.dtd">
<svg version="1.0" xmlns="http://www.w3.org/2000/svg"
 width="452.000000pt" height="452.000000pt" viewBox="0 0 452.000000 452.000000"
 preserveAspectRatio="xMidYMid meet">
<metadata>
Created by potrace 1.16, written by Peter Selinger 2001-2019
</metadata>
<g transform="translate(0.000000,452.000000) scale(0.100000,-0.100000)"
fill="#000000" stroke="none">
<path d="M1485 3809 c-315 -47 -599 -272 -718 -570 -64 -160 -62 -128 -62
-979 0 -707 2 -781 18 -844 47 -183 117 -306 252 -441 135 -135 258 -205 441
-252 63 -16 137 -18 849 -18 778 0 780 0 860 23 90 25 222 85 293 133 68 47
178 155 228 225 57 79 118 209 146 309 23 80 23 82 23 860 0 712 -2 786 -18
849 -47 183 -117 306 -252 441 -105 105 -187 160 -306 208 -157 63 -124 61
-944 63 -412 1 -777 -2 -810 -7z m1601 -312 c85 -28 176 -81 243 -142 62 -57
137 -175 168 -268 l28 -82 3 -685 c3 -713 0 -790 -39 -907 -22 -68 -77 -159
-134 -222 -56 -62 -175 -137 -268 -168 l-82 -28 -745 0 -745 0 -82 28 c-93 31
-212 106 -268 168 -61 67 -114 157 -143 243 l-27 81 0 745 0 745 27 81 c29 86
82 176 143 243 83 91 237 171 369 191 28 5 371 7 761 6 l710 -1 81 -28z"/>
<path d="M3033 3210 c-131 -67 -70 -262 77 -247 86 9 142 107 104 183 -38 75
-109 100 -181 64z"/>
<path d="M2090 3095 c-240 -48 -455 -206 -578 -425 -145 -259 -133 -621 30
-869 225 -344 650 -480 1034 -332 106 41 194 100 285 190 165 166 249 367 249
601 0 234 -84 435 -249 601 -127 126 -269 202 -439 235 -90 17 -244 17 -332
-1z m347 -305 c229 -79 378 -287 378 -530 0 -245 -149 -452 -383 -532 -93 -31
-238 -32 -337 -1 -173 54 -314 195 -368 368 -31 99 -30 244 1 337 37 107 109
208 196 273 67 50 116 73 199 96 92 25 223 20 314 -11z"/>
</g>
</svg>
