<?xml version="1.0" standalone="no"?>
<!DOCTYPE svg PUBLIC "-//W3C//DTD SVG 20010904//EN"
 "http://www.w3.org/TR/2001/REC-SVG-20010904/DTD/svg10.dtd">
<svg version="1.0" xmlns="http://www.w3.org/2000/svg"
 width="512.000000pt" height="512.000000pt" viewBox="0 0 512.000000 512.000000"
 preserveAspectRatio="xMidYMid meet">
<metadata>
Created by potrace 1.16, written by Peter Selinger 2001-2019
</metadata>
<g transform="translate(0.000000,512.000000) scale(0.100000,-0.100000)"
fill="#000000" stroke="none">
<path d="M2440 4809 c-751 -68 -1310 -707 -1277 -1458 7 -181 55 -379 124
-514 13 -27 23 -50 21 -52 -2 -2 -159 -79 -348 -172 -356 -174 -378 -188 -399
-256 -24 -77 -361 -1860 -361 -1910 0 -48 4 -61 30 -91 37 -41 88 -61 139 -52
20 3 334 134 699 290 l663 284 807 -285 c444 -157 825 -288 848 -290 36 -5
118 28 757 302 772 331 766 328 781 408 9 51 -356 1941 -382 1976 -37 50 -70
66 -130 65 -52 0 -76 -10 -271 -108 -118 -59 -237 -118 -266 -130 l-52 -23 33
76 c266 618 47 1341 -521 1715 -200 132 -408 203 -660 226 -112 10 -116 10
-235 -1z m311 -314 c144 -25 298 -87 426 -172 72 -47 202 -170 258 -243 232
-304 290 -689 158 -1045 -39 -105 -76 -174 -156 -293 -81 -117 -866 -1187
-873 -1187 -7 0 -884 1197 -919 1256 -138 226 -198 466 -175 698 44 444 334
806 761 950 147 50 359 65 520 36z m1703 -2586 c81 -423 147 -772 144 -774
-10 -10 -1109 -477 -1114 -473 -5 5 -144 1351 -144 1397 0 18 24 60 72 125
l71 99 401 197 c221 109 406 199 411 199 6 1 77 -346 159 -770z m-2844 421
c92 -126 120 -171 120 -195 -1 -76 -97 -956 -105 -964 -12 -12 -1066 -464
-1070 -459 -6 5 286 1503 293 1506 4 1 144 70 312 152 238 116 308 146 317
137 7 -7 66 -86 133 -177z m561 -762 c134 -183 259 -350 278 -370 56 -63 150
-73 210 -22 16 13 131 163 257 334 125 171 231 307 234 303 8 -9 124 -1142
118 -1148 -4 -4 -1417 491 -1425 499 -5 5 72 736 77 736 4 0 116 -150 251
-332z"/>
<path d="M2395 4012 c-196 -58 -360 -217 -421 -407 -117 -366 99 -734 476
-811 202 -40 405 22 556 171 84 83 137 172 164 280 22 88 26 214 9 297 -17 80
-79 206 -137 274 -60 73 -174 152 -263 184 -89 32 -296 38 -384 12z m270 -196
c208 -55 350 -263 317 -463 -24 -142 -111 -259 -240 -324 -63 -32 -73 -34
-173 -34 -101 0 -108 1 -180 37 -93 46 -158 112 -202 206 -30 62 -32 75 -32
172 0 97 2 110 31 170 87 184 294 286 479 236z"/>
</g>
</svg>
