<?xml version="1.0" standalone="no"?>
<!DOCTYPE svg PUBLIC "-//W3C//DTD SVG 20010904//EN"
 "http://www.w3.org/TR/2001/REC-SVG-20010904/DTD/svg10.dtd">
<svg version="1.0" xmlns="http://www.w3.org/2000/svg"
 width="225.000000pt" height="225.000000pt" viewBox="0 0 225.000000 225.000000"
 preserveAspectRatio="xMidYMid meet">
<metadata>
Created by potrace 1.16, written by Peter Selinger 2001-2019
</metadata>
<g transform="translate(0.000000,225.000000) scale(0.100000,-0.100000)"
fill="#000000" stroke="none">
<path d="M930 2225 c-149 -67 -167 -280 -32 -366 88 -55 182 -47 257 22 100
92 89 245 -23 323 -52 37 -145 46 -202 21z"/>
<path d="M1637 2143 c-4 -3 -7 -14 -7 -23 0 -29 -25 -70 -42 -70 -10 0 -19 -3
-20 -7 -6 -32 -10 -71 -16 -158 -8 -109 -28 -160 -73 -182 -51 -27 -179 -9
-270 37 -19 10 -71 23 -115 29 -142 20 -289 -13 -372 -84 l-33 -28 26 -17 c40
-26 65 -70 65 -114 l0 -39 49 46 c27 26 61 49 76 53 39 10 79 -23 83 -68 3
-30 -3 -41 -37 -73 l-39 -37 30 -34 31 -33 29 24 c35 29 77 32 107 8 31 -26
83 -170 76 -210 -6 -35 -41 -63 -80 -63 -26 0 -75 39 -75 61 0 6 -18 -5 -40
-25 -34 -30 -47 -36 -86 -36 -30 0 -59 8 -80 21 -25 15 -46 19 -91 17 l-57 -3
-43 -210 c-23 -116 -42 -213 -43 -216 0 -9 103 -46 180 -64 104 -25 318 -30
429 -11 81 14 224 56 237 69 2 2 -36 201 -85 441 l-89 438 27 -6 c137 -30 236
-11 306 59 40 39 50 44 97 47 l53 3 3 110 c5 160 -5 255 -27 255 -20 0 -51 49
-43 69 7 19 -26 39 -41 24z m88 -303 l0 -135 -71 -3 c-57 -2 -73 0 -77 13 -7
15 1 19 41 15 12 -1 22 3 22 9 0 6 -16 11 -36 11 -31 0 -35 3 -32 23 2 18 9
22 36 21 17 0 32 4 32 8 0 4 -16 8 -36 8 -31 0 -35 3 -32 23 2 18 9 22 36 22
17 0 32 3 32 7 0 5 -16 8 -36 8 -31 0 -35 3 -32 23 2 16 12 24 38 28 l35 6
-37 2 c-24 1 -38 6 -38 14 0 28 25 38 90 35 l65 -3 0 -135z"/>
<path d="M593 1625 c-107 -46 -67 -215 52 -215 120 0 159 170 50 216 -42 17
-61 17 -102 -1z"/>
<path d="M798 1472 c-88 -88 -98 -102 -98 -134 0 -35 0 -36 38 -32 20 3 56 9
78 15 33 9 47 8 71 -5 33 -17 43 -34 43 -75 0 -38 -24 -68 -67 -82 -34 -11
-35 -13 -18 -25 10 -8 36 -14 57 -14 31 0 47 8 82 40 24 22 46 40 49 40 4 0
13 -16 21 -35 23 -55 94 -58 111 -5 7 23 -39 164 -63 193 -22 25 -57 21 -95
-13 l-35 -30 -41 45 c-22 24 -41 48 -41 53 0 5 18 25 40 45 46 41 52 77 18
101 -12 9 -29 16 -37 16 -8 0 -59 -44 -113 -98z"/>
<path d="M517 1335 c-32 -104 -26 -126 42 -152 70 -27 263 -26 311 3 37 21 46
40 36 80 -10 37 -42 44 -117 27 -63 -14 -149 -11 -149 6 0 5 7 27 15 50 l14
41 -32 0 c-18 1 -43 7 -57 15 -14 8 -28 14 -31 15 -3 0 -18 -38 -32 -85z"/>
<path d="M802 335 l3 -277 28 -24 c40 -34 105 -33 138 2 24 26 24 26 27 288
l3 263 -85 6 c-46 4 -92 10 -101 13 -14 6 -16 -18 -13 -271z"/>
<path d="M1170 599 c-25 -4 -67 -8 -93 -8 l-48 -1 3 -266 3 -266 28 -24 c30
-26 83 -32 118 -14 45 24 49 53 49 330 0 143 -3 259 -7 259 -5 -1 -28 -5 -53
-10z"/>
</g>
</svg>
