<?xml version="1.0" standalone="no"?>
<!DOCTYPE svg PUBLIC "-//W3C//DTD SVG 20010904//EN"
 "http://www.w3.org/TR/2001/REC-SVG-20010904/DTD/svg10.dtd">
<svg version="1.0" xmlns="http://www.w3.org/2000/svg"
 width="452.000000pt" height="452.000000pt" viewBox="0 0 452.000000 452.000000"
 preserveAspectRatio="xMidYMid meet">
<metadata>
Created by potrace 1.16, written by Peter Selinger 2001-2019
</metadata>
<g transform="translate(0.000000,452.000000) scale(0.100000,-0.100000)"
fill="#000000" stroke="none">
<path d="M2940 3965 c-359 -74 -637 -354 -712 -715 -16 -76 -19 -119 -15 -220
3 -69 8 -135 12 -146 6 -21 4 -21 -42 -17 -235 21 -419 58 -631 128 -428 142
-828 408 -1135 755 l-66 75 -35 -76 c-67 -145 -81 -214 -80 -399 0 -150 3
-173 27 -253 58 -188 166 -349 312 -465 31 -25 35 -32 20 -32 -52 0 -210 42
-285 74 -46 20 -86 36 -88 36 -11 0 9 -171 28 -246 25 -99 93 -240 154 -321
111 -146 282 -268 450 -320 31 -9 56 -20 56 -24 0 -19 -222 -29 -318 -16 -53
8 -54 7 -47 -15 15 -53 79 -176 122 -237 151 -211 389 -350 647 -378 l68 -8
-108 -71 c-188 -124 -357 -199 -570 -252 -164 -41 -299 -55 -496 -51 -91 2
-164 1 -162 -2 7 -12 138 -86 249 -141 498 -249 1078 -327 1655 -223 400 72
751 227 1085 478 119 90 368 344 467 477 270 362 439 761 514 1210 17 107 38
398 32 459 l-5 47 56 40 c82 58 257 236 334 339 70 94 79 112 49 96 -69 -37
-398 -131 -457 -131 -9 0 17 27 57 59 116 94 222 238 278 380 11 29 19 55 18
56 -2 2 -61 -26 -133 -61 -122 -61 -274 -116 -392 -144 l-52 -12 -58 50 c-140
119 -290 192 -457 221 -80 15 -266 12 -346 -4z"/>
</g>
</svg>
