<?xml version="1.0" standalone="no"?>
<!DOCTYPE svg PUBLIC "-//W3C//DTD SVG 20010904//EN"
 "http://www.w3.org/TR/2001/REC-SVG-20010904/DTD/svg10.dtd">
<svg version="1.0" xmlns="http://www.w3.org/2000/svg"
 width="512.000000pt" height="512.000000pt" viewBox="0 0 512.000000 512.000000"
 preserveAspectRatio="xMidYMid meet">
<metadata>
Created by potrace 1.16, written by Peter Selinger 2001-2019
</metadata>
<g transform="translate(0.000000,512.000000) scale(0.100000,-0.100000)"
fill="#000000" stroke="none">
<path d="M2240 5105 c-444 -55 -852 -220 -1220 -493 -150 -112 -400 -362 -512
-512 -276 -372 -439 -779 -494 -1230 -17 -148 -17 -472 0 -620 55 -451 218
-857 494 -1230 111 -149 361 -399 512 -512 371 -275 778 -439 1230 -494 148
-17 472 -17 620 0 451 55 858 218 1230 494 150 112 400 362 512 512 276 372
439 779 494 1230 17 148 17 472 0 620 -55 451 -218 858 -494 1230 -112 150
-362 400 -512 512 -372 276 -779 439 -1230 494 -143 17 -488 16 -630 -1z m575
-216 c261 -27 525 -104 770 -223 477 -233 848 -604 1081 -1081 160 -327 235
-652 235 -1025 0 -373 -74 -695 -235 -1025 -232 -476 -604 -847 -1081 -1081
-330 -161 -651 -235 -1025 -235 -374 0 -695 74 -1025 235 -477 234 -849 605
-1081 1081 -161 330 -235 652 -235 1025 0 374 74 695 235 1025 187 381 452
685 806 924 454 305 997 438 1555 380z"/>
<path d="M1730 3845 c-58 -31 -55 38 -55 -1285 0 -1328 -3 -1255 57 -1286 15
-8 40 -14 55 -14 34 0 2117 1198 2145 1233 11 14 18 39 18 67 0 28 -7 53 -18
67 -9 12 -489 294 -1067 627 -773 446 -1057 606 -1080 606 -16 -1 -41 -7 -55
-15z m1043 -794 c460 -266 837 -487 837 -491 0 -4 -377 -225 -837 -491 -461
-265 -848 -489 -860 -497 l-23 -14 0 1002 0 1002 23 -14 c12 -8 399 -232 860
-497z"/>
</g>
</svg>
