<?xml version="1.0" standalone="no"?>
<!DOCTYPE svg PUBLIC "-//W3C//DTD SVG 20010904//EN"
 "http://www.w3.org/TR/2001/REC-SVG-20010904/DTD/svg10.dtd">
<svg version="1.0" xmlns="http://www.w3.org/2000/svg"
 width="512.000000pt" height="512.000000pt" viewBox="0 0 512.000000 512.000000"
 preserveAspectRatio="xMidYMid meet">
<metadata>
Created by potrace 1.16, written by Peter Selinger 2001-2019
</metadata>
<g transform="translate(0.000000,512.000000) scale(0.100000,-0.100000)"
fill="#000000" stroke="none">
<path d="M2430 5114 c-120 -15 -251 -38 -332 -60 -569 -151 -1031 -525 -1283
-1039 -118 -242 -172 -447 -190 -722 -4 -48 3 -384 14 -745 12 -361 21 -689
21 -730 l0 -73 -47 -35 c-27 -19 -63 -58 -82 -86 -33 -51 -35 -52 -93 -58
-120 -14 -219 -82 -270 -184 -19 -39 -23 -63 -23 -142 0 -81 4 -103 26 -150
65 -137 201 -213 427 -239 46 -5 86 -11 88 -14 3 -3 8 -101 11 -219 6 -249 12
-281 56 -309 42 -26 81 -20 193 32 49 22 109 49 134 59 25 10 150 66 279 124
l233 105 220 -282 c121 -155 232 -295 247 -310 18 -19 42 -30 68 -34 36 -5 45
-2 76 28 19 19 110 142 202 274 92 132 173 246 180 253 9 10 51 -43 205 -262
208 -297 219 -307 288 -290 32 8 67 45 280 299 134 160 249 298 256 307 12 16
42 4 367 -148 195 -91 368 -168 386 -171 38 -6 86 20 103 56 15 31 104 2804
94 2946 -7 112 -29 257 -53 353 l-19 73 51 26 c137 68 269 180 312 262 97 189
65 417 -78 548 -114 105 -269 137 -422 88 l-50 -16 -58 55 c-128 122 -291 156
-447 93 l-55 -22 -95 59 c-222 140 -477 235 -750 281 -91 16 -397 28 -470 19z
m435 -230 c50 -8 107 -19 128 -25 l37 -10 0 -158 c0 -185 4 -212 36 -245 44
-44 113 -38 159 14 18 19 21 40 25 171 l5 149 111 -54 c61 -29 137 -70 168
-90 l56 -36 -20 -40 c-102 -199 -48 -411 175 -687 141 -175 253 -290 289 -299
22 -5 61 3 144 30 62 21 115 36 116 34 2 -1 14 -52 26 -113 36 -172 35 -368
-4 -1641 -20 -638 -36 -1195 -36 -1237 0 -50 -4 -77 -11 -77 -6 0 -143 61
-303 136 l-293 136 -104 180 c-57 99 -115 191 -128 204 -17 17 -35 24 -62 24
l-39 0 0 169 0 169 63 50 c253 204 412 465 484 796 22 100 31 971 11 1031 -26
79 27 75 -930 75 l-847 0 -3 174 c-3 168 -4 175 -27 200 -48 51 -142 40 -170
-20 -7 -15 -11 -90 -11 -189 l0 -165 -115 0 -115 0 0 164 c0 153 -1 165 -23
197 -39 58 -115 64 -163 12 -23 -25 -24 -30 -24 -199 l0 -174 -45 0 c-68 0
-113 -22 -131 -66 -22 -53 -15 -943 9 -1049 39 -178 107 -340 203 -485 55 -84
207 -247 289 -310 l55 -42 0 -169 0 -169 -39 0 c-27 0 -45 -7 -62 -24 -13 -13
-64 -105 -113 -204 l-90 -180 -315 -141 c-173 -77 -316 -139 -317 -138 -1 1
-4 65 -5 141 -2 136 -2 140 20 150 28 12 126 209 173 346 28 83 32 109 32 200
1 99 -1 109 -32 173 -38 76 -105 141 -174 168 -39 15 -43 20 -50 60 -11 77
-41 1297 -36 1464 14 418 170 777 475 1096 396 412 991 613 1548 523z m1176
-314 c34 -18 65 -49 137 -138 48 -61 83 -64 181 -18 178 83 317 19 338 -154
14 -119 -63 -224 -226 -309 -81 -42 -368 -154 -381 -149 -4 2 -47 48 -95 103
-152 173 -237 308 -255 403 -18 97 22 197 100 248 70 47 128 50 201 14z m-351
-1629 c0 -346 -2 -399 -19 -482 -47 -224 -133 -387 -289 -551 -138 -144 -323
-253 -519 -305 -87 -23 -117 -26 -268 -26 -153 -1 -180 2 -270 26 -353 95
-641 355 -761 687 -60 166 -65 214 -71 627 -3 210 -3 389 0 397 6 14 118 16
1102 16 l1095 0 0 -389z m-2820 -1409 c83 -61 75 -180 -27 -404 -35 -76 -37
-78 -72 -78 -72 0 -218 21 -281 40 -115 34 -166 118 -124 205 22 47 58 59 152
51 100 -8 129 7 156 85 26 73 44 99 81 115 36 16 80 11 115 -14z m1312 -106
c140 -47 258 -66 413 -66 169 0 345 32 467 84 71 30 69 34 66 -141 l-3 -158
-265 -134 -265 -133 -267 133 -268 134 0 157 c0 89 4 158 9 158 5 0 56 -15
113 -34z m1221 -543 l65 -111 -200 -242 c-111 -132 -204 -239 -209 -238 -10 4
-299 415 -299 425 0 12 564 292 572 285 3 -4 36 -57 71 -119z m-1241 -26 c194
-96 266 -136 262 -146 -6 -19 -288 -421 -294 -420 -8 0 -374 475 -373 483 0 4
24 57 53 117 40 86 56 109 68 104 9 -3 136 -65 284 -138z"/>
<path d="M3081 4304 c-13 -9 -29 -31 -37 -50 -42 -101 79 -190 164 -119 73 62
28 185 -68 185 -20 0 -46 -7 -59 -16z"/>
<path d="M1964 4244 c-85 -42 -64 -182 30 -200 110 -20 170 131 77 193 -40 27
-64 28 -107 7z"/>
<path d="M3955 1686 c-57 -26 -60 -40 -63 -288 -3 -193 -1 -232 13 -261 42
-89 161 -77 193 19 10 29 12 96 10 254 -3 236 -6 247 -64 275 -39 18 -50 18
-89 1z"/>
<path d="M1918 3047 c-61 -23 -126 -66 -152 -100 -52 -68 -69 -147 -45 -201
12 -26 63 -56 96 -56 36 0 79 37 97 83 19 51 60 77 121 77 61 0 102 -26 118
-73 29 -87 122 -112 180 -47 36 40 36 97 1 168 -29 58 -64 91 -138 129 -42 22
-67 27 -146 30 -63 2 -107 -1 -132 -10z"/>
<path d="M3038 3047 c-61 -23 -126 -66 -152 -100 -52 -68 -69 -147 -45 -201
12 -26 63 -56 96 -56 36 0 79 37 97 83 19 51 60 77 121 77 61 0 102 -26 118
-73 29 -87 122 -112 180 -47 36 40 36 97 1 168 -50 101 -147 154 -289 159 -59
2 -103 -1 -127 -10z"/>
<path d="M2293 2263 c-32 -6 -72 -50 -79 -88 -22 -120 126 -197 384 -197 254
0 400 78 376 202 -8 37 -46 76 -82 83 -31 6 -80 -12 -100 -36 -21 -25 -115
-40 -231 -35 -107 5 -136 12 -181 47 -29 22 -56 30 -87 24z"/>
<path d="M4808 3361 l-33 -29 0 -252 0 -252 33 -29 c51 -46 128 -35 158 22 19
37 21 474 2 514 -27 59 -109 72 -160 26z"/>
<path d="M240 2522 c-38 -38 -42 -75 -38 -317 3 -171 6 -204 21 -226 52 -76
163 -57 187 32 7 26 10 120 8 261 l-3 220 -33 29 c-45 40 -102 41 -142 1z"/>
</g>
</svg>
